<svg xmlns="http://www.w3.org/2000/svg" viewBox="0 0 1024 1024" fill="black">
  <path d="M 484 152 L 483 153 L 482 153 L 481 154 L 479 154 L 478 155 L 477 155 L 476 156 L 475 156 L 473 158 L 472 158 L 459 171 L 459 172 L 454 177 L 454 178 L 451 181 L 451 182 L 449 184 L 449 185 L 447 187 L 447 188 L 445 190 L 445 191 L 444 192 L 444 193 L 442 195 L 442 196 L 441 197 L 441 198 L 440 199 L 440 200 L 439 201 L 439 202 L 438 203 L 438 204 L 437 205 L 437 206 L 436 207 L 436 209 L 435 210 L 435 211 L 434 212 L 434 213 L 433 214 L 433 216 L 432 217 L 432 219 L 431 220 L 431 223 L 430 224 L 430 226 L 429 227 L 429 230 L 428 231 L 428 234 L 427 235 L 427 239 L 426 240 L 426 248 L 425 249 L 425 264 L 414 275 L 414 276 L 407 283 L 407 284 L 403 288 L 403 289 L 400 292 L 400 293 L 398 295 L 398 296 L 396 298 L 396 299 L 394 301 L 394 302 L 392 304 L 392 305 L 390 307 L 390 308 L 389 309 L 389 310 L 387 312 L 387 313 L 386 314 L 386 315 L 385 316 L 385 317 L 384 318 L 384 320 L 383 321 L 383 322 L 382 323 L 382 324 L 381 325 L 381 326 L 380 327 L 380 328 L 379 329 L 379 331 L 378 332 L 378 334 L 377 335 L 377 337 L 376 338 L 376 340 L 375 341 L 375 343 L 374 344 L 374 347 L 373 348 L 373 353 L 372 354 L 372 358 L 371 359 L 371 365 L 370 366 L 370 373 L 369 374 L 369 382 L 368 383 L 368 393 L 367 394 L 367 407 L 366 408 L 366 422 L 365 423 L 365 436 L 364 437 L 364 453 L 363 454 L 363 472 L 362 473 L 362 494 L 361 495 L 361 516 L 360 517 L 360 544 L 359 545 L 359 573 L 358 574 L 358 626 L 359 627 L 359 635 L 360 636 L 360 641 L 361 642 L 361 645 L 362 646 L 362 649 L 363 650 L 363 653 L 364 654 L 364 656 L 365 657 L 365 659 L 366 660 L 366 662 L 367 663 L 367 664 L 368 665 L 368 666 L 369 667 L 369 669 L 370 670 L 370 671 L 372 673 L 372 674 L 373 675 L 373 676 L 375 678 L 375 679 L 376 680 L 376 681 L 379 684 L 379 685 L 382 688 L 382 689 L 391 698 L 392 698 L 396 702 L 397 702 L 400 705 L 401 705 L 403 707 L 404 707 L 405 708 L 406 708 L 407 709 L 408 709 L 409 710 L 410 710 L 411 711 L 413 711 L 414 712 L 415 712 L 416 713 L 419 713 L 420 714 L 422 714 L 423 715 L 426 715 L 427 716 L 433 716 L 434 717 L 703 717 L 704 716 L 712 716 L 713 715 L 717 715 L 718 714 L 722 714 L 723 713 L 725 713 L 726 712 L 729 712 L 730 711 L 732 711 L 733 710 L 735 710 L 736 709 L 738 709 L 739 708 L 740 708 L 741 707 L 742 707 L 743 706 L 744 706 L 745 705 L 746 705 L 747 704 L 748 704 L 749 703 L 750 703 L 751 702 L 752 702 L 753 701 L 754 701 L 756 699 L 757 699 L 759 697 L 760 697 L 762 695 L 763 695 L 766 692 L 767 692 L 780 679 L 780 678 L 784 674 L 784 673 L 787 670 L 787 669 L 789 667 L 789 666 L 790 665 L 790 664 L 792 662 L 792 661 L 793 660 L 793 659 L 794 658 L 794 657 L 795 656 L 795 655 L 796 654 L 796 653 L 797 652 L 797 651 L 798 650 L 798 648 L 799 647 L 799 646 L 800 645 L 800 643 L 801 642 L 801 640 L 802 639 L 802 637 L 803 636 L 803 633 L 804 632 L 804 629 L 805 628 L 805 625 L 806 624 L 806 619 L 807 618 L 807 609 L 808 608 L 808 591 L 807 590 L 807 581 L 806 580 L 806 575 L 805 574 L 805 570 L 804 569 L 804 566 L 803 565 L 803 563 L 802 562 L 802 560 L 801 559 L 801 557 L 800 556 L 800 554 L 799 553 L 799 552 L 798 551 L 798 549 L 797 548 L 797 547 L 795 545 L 795 544 L 794 543 L 794 542 L 793 541 L 793 540 L 792 539 L 792 538 L 791 537 L 791 536 L 789 534 L 789 533 L 787 531 L 787 530 L 784 527 L 784 526 L 781 523 L 781 522 L 767 508 L 766 508 L 763 505 L 762 505 L 759 502 L 758 502 L 756 500 L 755 500 L 754 499 L 753 499 L 751 497 L 750 497 L 749 496 L 748 496 L 747 495 L 746 495 L 745 494 L 744 494 L 743 493 L 742 493 L 741 492 L 739 492 L 738 491 L 737 491 L 736 490 L 734 490 L 733 489 L 731 489 L 730 488 L 728 488 L 727 487 L 724 487 L 723 486 L 720 486 L 719 485 L 715 485 L 714 484 L 707 484 L 706 483 L 644 483 L 643 482 L 642 483 L 641 482 L 560 482 L 559 481 L 558 481 L 557 480 L 556 480 L 553 477 L 553 476 L 552 475 L 552 473 L 551 472 L 551 459 L 552 458 L 552 456 L 553 455 L 553 454 L 554 453 L 554 452 L 555 451 L 555 450 L 558 447 L 558 446 L 559 445 L 560 445 L 560 444 L 561 443 L 562 443 L 566 439 L 567 439 L 569 437 L 570 437 L 571 436 L 572 436 L 573 435 L 575 435 L 576 434 L 578 434 L 579 433 L 581 433 L 582 432 L 585 432 L 586 431 L 591 431 L 592 430 L 656 430 L 657 429 L 664 429 L 665 428 L 668 428 L 669 427 L 672 427 L 673 426 L 675 426 L 676 425 L 678 425 L 679 424 L 680 424 L 681 423 L 682 423 L 683 422 L 684 422 L 685 421 L 686 421 L 687 420 L 688 420 L 690 418 L 691 418 L 694 415 L 695 415 L 708 402 L 708 401 L 711 398 L 711 397 L 713 395 L 713 394 L 714 393 L 714 392 L 715 391 L 715 390 L 716 389 L 716 388 L 717 387 L 717 386 L 718 385 L 718 384 L 719 383 L 719 382 L 720 381 L 720 379 L 721 378 L 721 376 L 722 375 L 722 372 L 723 371 L 723 366 L 724 365 L 724 360 L 723 359 L 723 354 L 722 353 L 722 350 L 721 349 L 721 347 L 720 346 L 720 345 L 719 344 L 719 343 L 718 342 L 718 341 L 715 338 L 715 337 L 708 330 L 707 330 L 704 327 L 703 327 L 701 325 L 700 325 L 699 324 L 698 324 L 697 323 L 696 323 L 694 321 L 692 321 L 691 320 L 690 320 L 689 319 L 688 319 L 687 318 L 686 318 L 685 317 L 684 317 L 683 316 L 681 316 L 680 315 L 679 315 L 678 314 L 676 314 L 675 313 L 673 313 L 672 312 L 671 312 L 670 311 L 668 311 L 667 310 L 665 310 L 664 309 L 663 309 L 662 308 L 660 308 L 659 307 L 657 307 L 656 306 L 655 306 L 654 305 L 652 305 L 651 304 L 649 304 L 648 303 L 647 303 L 646 302 L 644 302 L 643 301 L 641 301 L 640 300 L 639 300 L 638 299 L 636 299 L 635 298 L 634 298 L 633 297 L 631 297 L 630 296 L 629 296 L 628 295 L 627 295 L 626 294 L 625 294 L 624 293 L 623 293 L 621 291 L 620 291 L 617 288 L 616 288 L 600 272 L 599 272 L 597 270 L 596 270 L 594 268 L 593 268 L 592 267 L 591 267 L 590 266 L 589 266 L 588 265 L 586 265 L 585 264 L 584 264 L 583 263 L 581 263 L 580 262 L 579 262 L 578 261 L 576 261 L 575 260 L 572 260 L 571 259 L 569 259 L 568 258 L 566 258 L 565 257 L 562 257 L 561 256 L 557 256 L 556 255 L 553 255 L 551 253 L 551 252 L 552 251 L 552 249 L 554 247 L 554 246 L 555 245 L 555 244 L 556 243 L 556 242 L 557 241 L 557 240 L 558 239 L 558 238 L 559 237 L 559 236 L 560 235 L 560 234 L 561 233 L 561 232 L 562 231 L 562 230 L 563 229 L 563 228 L 564 227 L 564 225 L 566 223 L 566 221 L 567 220 L 567 219 L 568 218 L 568 216 L 569 215 L 569 214 L 570 213 L 570 210 L 571 209 L 571 207 L 572 206 L 572 204 L 573 203 L 573 200 L 574 199 L 574 196 L 575 195 L 575 189 L 576 188 L 576 182 L 575 181 L 575 176 L 574 175 L 574 173 L 573 172 L 573 170 L 572 169 L 572 168 L 570 166 L 570 165 L 568 163 L 567 163 L 566 162 L 565 162 L 564 161 L 563 161 L 562 160 L 557 160 L 555 162 L 554 162 L 552 164 L 551 164 L 544 171 L 544 172 L 540 176 L 540 177 L 537 180 L 537 181 L 535 183 L 535 184 L 533 186 L 533 187 L 531 189 L 531 190 L 529 192 L 529 193 L 528 194 L 528 195 L 526 197 L 526 198 L 524 200 L 524 201 L 522 203 L 522 204 L 521 205 L 521 206 L 519 208 L 519 209 L 516 212 L 516 213 L 515 214 L 515 215 L 512 218 L 512 219 L 510 221 L 510 222 L 507 225 L 507 226 L 504 229 L 504 230 L 499 235 L 499 236 L 493 242 L 493 243 L 491 245 L 490 245 L 489 244 L 490 243 L 490 239 L 491 238 L 491 235 L 492 234 L 492 232 L 493 231 L 493 229 L 494 228 L 494 226 L 495 225 L 495 224 L 496 223 L 496 221 L 497 220 L 497 219 L 498 218 L 498 216 L 499 215 L 499 212 L 500 211 L 500 209 L 501 208 L 501 206 L 502 205 L 502 202 L 503 201 L 503 198 L 504 197 L 504 191 L 505 190 L 505 176 L 504 175 L 504 171 L 503 170 L 503 167 L 502 166 L 502 165 L 501 164 L 501 163 L 500 162 L 500 161 L 499 160 L 499 159 L 494 154 L 493 154 L 492 153 L 490 153 L 489 152 Z " />
</svg>